<svg width="350" height="470" viewBox="0 0 350 470" fill="none" xmlns="http://www.w3.org/2000/svg" style="opacity: .2;">
<path fill-rule="evenodd" clip-rule="evenodd" d="M-6.10352e-05 63.884C3.95361 67.7851 12.7595 80.4501 24.067 120.659C24.1837 121.129 24.5113 121.508 24.9425 121.671C25.3737 121.835 25.8531 121.762 26.2236 121.476C33.1605 115.873 63.6038 94.9626 114.498 113.956C115.037 114.155 115.404 114.687 115.42 115.293C115.436 115.898 115.098 116.451 114.57 116.682C107.569 119.781 91.0638 128.026 81.7691 139.218C81.4281 139.657 81.3625 140.269 81.6017 140.779C81.841 141.289 82.3403 141.601 82.8761 141.577C102.285 140.913 211.651 143.867 295.843 284.595C296.187 285.181 296.099 285.944 295.631 286.425C295.163 286.905 294.442 286.973 293.902 286.587C273.055 271.044 198.129 219.201 132.534 224.873C131.921 224.912 131.411 225.389 131.295 226.03C131.18 226.671 131.489 227.314 132.045 227.591C155.624 239.233 259.922 300.115 283.845 473.861C283.939 474.556 283.558 475.226 282.934 475.46C282.309 475.694 281.617 475.427 281.279 474.823C266.578 447.279 207.237 344.103 125.109 307.497C124.522 307.234 123.841 307.432 123.462 307.976C123.083 308.52 123.104 309.268 123.513 309.788C139.457 330.552 202.363 423.048 188.705 576.082C188.658 576.771 188.154 577.325 187.507 577.399C186.86 577.472 186.257 577.043 186.074 576.38C177.448 546.919 141.204 431.003 80.8777 360.746C80.4872 360.242 79.825 360.084 79.269 360.361C78.713 360.638 78.4047 361.28 78.5199 361.921C82.5383 388.435 100.502 518.643 79.1453 620.856C78.9783 621.545 78.3703 622.007 77.7029 621.952C77.0355 621.898 76.5011 621.342 76.4352 620.635C72.9704 582.266 57.3642 429.896 25.3322 383.281C25.064 382.916 24.6541 382.7 24.218 382.694C24.218 382.694 23.8011 382.694 23.0391 382.617L16.0375 475.922H28.0854L18.6613 600.901H30.0982L24.2036 724.329C206.029 710.336 349.368 549.278 349.368 352.714C349.368 147.394 193.133 -19.1144 -6.10352e-05 -20" fill="url(#paint0_linear_10_5391)"/>
<path d="M-6.10352e-05 63.884C3.95361 67.7851 12.7595 80.4501 24.067 120.659C24.1837 121.129 24.5113 121.508 24.9425 121.671C25.3737 121.835 25.8531 121.762 26.2236 121.476C33.1605 115.873 63.6038 94.9626 114.498 113.956C115.037 114.155 115.404 114.687 115.42 115.293C115.436 115.898 115.098 116.451 114.57 116.682C107.569 119.781 91.0638 128.026 81.7691 139.218C81.4281 139.657 81.3625 140.269 81.6017 140.779C81.841 141.289 82.3403 141.601 82.8761 141.577C102.285 140.913 211.651 143.867 295.843 284.595C296.187 285.182 296.099 285.944 295.631 286.425C295.163 286.905 294.442 286.973 293.902 286.587C273.055 271.044 198.129 219.201 132.534 224.873C131.921 224.912 131.411 225.389 131.295 226.03C131.18 226.671 131.489 227.314 132.045 227.591C155.624 239.233 259.922 300.115 283.845 473.861C283.939 474.556 283.558 475.226 282.934 475.46C282.309 475.694 281.617 475.427 281.279 474.823C266.578 447.279 207.237 344.103 125.109 307.497C124.522 307.234 123.841 307.432 123.462 307.976C123.083 308.52 123.104 309.268 123.513 309.788C139.457 330.552 202.363 423.048 188.705 576.082C188.658 576.771 188.154 577.325 187.507 577.399C186.86 577.472 186.257 577.043 186.074 576.38C177.448 546.919 141.204 431.003 80.8777 360.746C80.4872 360.242 79.825 360.084 79.269 360.361C78.713 360.638 78.4047 361.28 78.5199 361.921C82.5383 388.435 100.502 518.643 79.1453 620.856C78.9783 621.545 78.3703 622.007 77.7029 621.952C77.0355 621.898 76.5011 621.342 76.4352 620.635C72.9704 582.266 57.3642 429.896 25.3322 383.281C25.064 382.916 24.6541 382.7 24.218 382.694C24.218 382.694 23.801 382.694 23.0391 382.617L16.0375 475.922H28.0854L18.6613 600.901H30.0982L24.2036 724.329C206.029 710.336 349.368 549.278 349.368 352.714C349.368 147.394 193.133 -19.1144 -6.10352e-05 -20" stroke="white" stroke-width="0.5" stroke-linecap="round" stroke-linejoin="round"/>
<defs>
<linearGradient id="paint0_linear_10_5391" x1="139.184" y1="-20" x2="623.879" y2="250.221" gradientUnits="userSpaceOnUse">
<stop offset="0.145833"/>
<stop offset="0.786458" stop-color="#389492"/>
<stop offset="1" stop-color="#046F6D"/>
</linearGradient>
</defs>
</svg>
