<svg width="149" height="306" viewBox="0 0 149 306" fill="none" xmlns="http://www.w3.org/2000/svg">
<path d="M136.022 254.864H140.41L136.509 204.094L136.468 203.556H137.008H141.56L138.68 166.201H138.68H138.679H138.679H138.678H138.678H138.678H138.677H138.677H138.676H138.676H138.675H138.675H138.675H138.674H138.674H138.673H138.673H138.672H138.672H138.672H138.671H138.671H138.67H138.67H138.67H138.669H138.669H138.669H138.668H138.668H138.667H138.667H138.667H138.666H138.666H138.666H138.665H138.665H138.665H138.664H138.664H138.664H138.663H138.663H138.663H138.663H138.662H138.662H138.662H138.661H138.661H138.661H138.661H138.66H138.66H138.66H138.659H138.659H138.659H138.659H138.658H138.658H138.658H138.658H138.658H138.657H138.657H138.657H138.657H138.656H138.656H138.656H138.656H138.656H138.655H138.655H138.655H138.655H138.655H138.654H138.654H138.654H138.654H138.654H138.654H138.654H138.653H138.653H138.653H138.653H138.653H138.653H138.653H138.652H138.652H138.652H138.652H138.652H138.652H138.651H138.651H138.651H138.651H138.651H138.651H138.651C138.607 166.201 138.582 166.201 138.559 166.203C138.545 166.203 138.536 166.205 138.532 166.206C135.147 170.93 132.178 178.35 129.61 187.122C127.037 195.908 124.88 206.003 123.105 216.003C119.559 235.985 117.549 255.551 116.808 263.466C116.795 264.077 116.329 264.45 115.873 264.522C115.64 264.559 115.381 264.525 115.153 264.39C114.917 264.25 114.745 264.02 114.673 263.726L114.67 263.713C105.613 221.724 113.351 168.143 114.993 157.215L114.996 157.193L115.002 157.171C115.02 157.097 115.012 157.057 115.008 157.042C115.005 157.043 115.001 157.043 114.997 157.044C114.975 157.049 114.928 157.067 114.866 157.128C102.025 171.453 91.7444 190.487 84.2183 207.476C76.6934 224.462 71.9362 239.371 70.1329 245.414L70.1331 245.414L70.1292 245.426C69.9495 245.978 69.3792 246.159 68.978 246.127C68.7576 246.11 68.5166 246.03 68.3232 245.853C68.1255 245.673 68.0106 245.42 68.0041 245.129C62.2513 182.278 89.0439 144.155 95.8551 135.472C95.8821 135.42 95.8814 135.352 95.8335 135.282C95.8088 135.246 95.7826 135.229 95.7697 135.223C78.3962 142.668 63.3978 156.929 51.948 170.772C40.5026 184.61 32.6367 197.989 29.5201 203.615C29.2308 204.192 28.635 204.344 28.1671 204.197C27.7083 204.052 27.2962 203.584 27.4353 202.955C37.6424 131.531 82.1907 106.322 92.3944 101.513C92.4271 101.485 92.4547 101.448 92.4745 101.406C92.4996 101.352 92.5061 101.302 92.5034 101.27C92.5034 101.269 92.5033 101.268 92.5032 101.267C92.499 101.267 92.4941 101.266 92.4884 101.266H92.4674L92.4464 101.265C78.6115 100.098 63.7573 104.808 51.2191 110.64C38.6915 116.468 28.5347 123.387 24.1126 126.574L24.1127 126.574L24.1022 126.581C23.5963 126.927 23.0428 126.719 22.7439 126.412C22.4461 126.108 22.2541 125.56 22.5765 125.059C58.489 67.201 105.307 65.7778 113.684 66.1166C113.691 66.1158 113.703 66.1126 113.719 66.1006C113.742 66.084 113.768 66.0556 113.785 66.0189C113.801 65.986 113.805 65.96 113.805 65.9465L113.805 65.9463L113.796 65.9352C109.935 61.4873 102.971 58.1614 100.002 56.8102L99.9632 56.7924L99.9276 56.7681C99.553 56.5124 99.3399 56.1096 99.3399 55.7033C99.3399 55.2855 99.5739 54.8688 100.043 54.7063C121.932 46.7269 135.088 55.3832 138.141 57.8145L138.165 57.8339L138.169 57.8379C138.171 57.8369 138.174 57.8359 138.176 57.8346C138.208 57.8205 138.247 57.794 138.286 57.7554C138.313 57.7286 138.334 57.7015 138.349 57.6781C142.987 41.4817 146.712 36.1871 148.5 34.2852V0.502905C66.8801 1.11445 0.826859 69.2392 0.5 153.423C0.500977 233.719 61.1211 299.48 137.959 305.459L135.523 255.389L135.497 254.864H136.022ZM92.4988 101.246C92.4989 101.246 92.499 101.246 92.4992 101.246L92.4988 101.246Z" fill="white" fill-opacity="0.6" stroke="white"/>
</svg>
