<svg width="33" height="32" fill="none" xmlns="http://www.w3.org/2000/svg"><mask id="a" fill="#fff"><path d="M8.494 9a1 1 0 0 1 1-1h3.333a1 1 0 0 1 0 2h-.92l2.293 2.293a1 1 0 1 1-1.413 1.414l-2.293-2.294v.922a1 1 0 1 1-2 0V9Zm15 15.001a1 1 0 0 0 1-1v-3.334a1 1 0 1 0-2 0v.92L20.2 18.293a1 1 0 0 0-1.414 1.414L21.081 22h-.92a1 1 0 0 0 0 2h3.333ZM24.2 8.295c.189.186.293.44.293.706v3.334a1 1 0 1 1-2 0v-.92L20.2 13.708a.999.999 0 1 1-1.414-1.415L21.081 10h-.92a1 1 0 1 1 0-2h3.333a1 1 0 0 1 .707.293v.002ZM8.494 23a1 1 0 0 0 1 1h3.335a1 1 0 0 0 0-2h-.92l2.293-2.293a1 1 0 0 0-1.415-1.414l-2.293 2.294v-.92a1 1 0 1 0-2 0V23Zm-4-16a3 3 0 0 1 3-3h18a3 3 0 0 1 3 3v18a3 3 0 0 1-3 3h-18a3 3 0 0 1-3-3V7Zm3-1a1 1 0 0 0-1 1v18a1 1 0 0 0 1 1h18a1 1 0 0 0 1-1V7a1 1 0 0 0-1-1h-18Z"/></mask><path d="M8.494 9a1 1 0 0 1 1-1h3.333a1 1 0 0 1 0 2h-.92l2.293 2.293a1 1 0 1 1-1.413 1.414l-2.293-2.294v.922a1 1 0 1 1-2 0V9Zm15 15.001a1 1 0 0 0 1-1v-3.334a1 1 0 1 0-2 0v.92L20.2 18.293a1 1 0 0 0-1.414 1.414L21.081 22h-.92a1 1 0 0 0 0 2h3.333ZM24.2 8.295c.189.186.293.44.293.706v3.334a1 1 0 1 1-2 0v-.92L20.2 13.708a.999.999 0 1 1-1.414-1.415L21.081 10h-.92a1 1 0 1 1 0-2h3.333a1 1 0 0 1 .707.293v.002ZM8.494 23a1 1 0 0 0 1 1h3.335a1 1 0 0 0 0-2h-.92l2.293-2.293a1 1 0 0 0-1.415-1.414l-2.293 2.294v-.92a1 1 0 1 0-2 0V23Zm-4-16a3 3 0 0 1 3-3h18a3 3 0 0 1 3 3v18a3 3 0 0 1-3 3h-18a3 3 0 0 1-3-3V7Zm3-1a1 1 0 0 0-1 1v18a1 1 0 0 0 1 1h18a1 1 0 0 0 1-1V7a1 1 0 0 0-1-1h-18Z" fill="#1B0044" stroke="#006CF2" stroke-width="2" mask="url(#a)"/></svg>