<svg width="33" height="32" fill="none" xmlns="http://www.w3.org/2000/svg"><path d="m4.815 23 5.76-14.58h1.86L18.175 23h-2.82l-.56-2.38h-6.56L7.495 23h-2.68Zm9.38-4.7-2.7-8.08-2.68 8.08h5.38ZM28.344 16.76V23h-1.8v-1.56c-.82 1.2-2 1.84-3.78 1.84-2.22 0-3.66-1.36-3.66-3.46 0-2.46 1.66-3.72 4.92-3.72h2.52v-.18c0-1.66-1-2.66-3.1-2.8-1.24 0-2.44.3-3.54.9v-1.46c1.32-.5 2.56-.76 3.72-.76 3.18 0 4.72 1.62 4.72 4.96Zm-2.8.66h-1.62c-2.62 0-3.3.56-3.32 1.9.2 1.12 1.14 1.22 2.44 1.22 1.8 0 2.5-.38 2.5-2.72v-.4Z" fill="#006CF2"/></svg>