<svg width="33" height="32" fill="none" xmlns="http://www.w3.org/2000/svg"><path d="M26.148 6.167h-14.66L9.823 4.5h16.326c.6 0 1.1.208 1.53.638.43.43.638.93.637 1.528v16.327l-1.667-1.667V6.166h-.5Zm2.667.5v16.826V6.667Zm-23.5 18.667V7.525l-.147-.146-1.2-1.2c-.141-.142-.22-.321-.22-.58 0-.259.079-.438.22-.58.142-.141.321-.22.58-.22.259 0 .438.079.58.22l22.667 22.667c.141.141.22.321.22.58 0 .258-.079.438-.22.58-.142.141-.321.22-.58.22-.259 0-.438-.079-.58-.22l-1.2-1.2-.146-.147H7.48c-.599 0-1.1-.208-1.53-.638-.43-.43-.637-.93-.636-1.528Zm14.753-3.02-.146-.147h-4.107l.4-.534 1.1-1.466.26-.347-.307-.307-9.433-9.433-.854-.854v16.607H23.59l-.854-.853-2.667-2.667Zm-4.654-.681.4.534h-5.666c-.054 0-.078-.012-.09-.019a.22.22 0 0 1-.07-.087.225.225 0 0 1-.024-.055.05.05 0 0 1-.001-.017c0-.002.002-.026.042-.077l.005-.006.005-.007 2.666-3.566c.04-.052.07-.066.134-.066.065 0 .094.014.133.066l2.466 3.3Z" fill="#006CF2" stroke="#006CF2"/></svg>