<svg width="33" height="32" fill="none" xmlns="http://www.w3.org/2000/svg"><path d="M16.815 16.667a.667.667 0 1 0 0-1.334.667.667 0 0 0 0 1.334Z" fill="#006CF2" stroke="#006CF2" stroke-width="2" stroke-linecap="round" stroke-linejoin="round"/><path d="M7.481 16a9.333 9.333 0 0 0 9.334 9.333M7.48 16a9.333 9.333 0 0 1 9.334-9.333M7.48 16H4.815m12 9.333A9.334 9.334 0 0 0 26.148 16m-9.333 9.333V28m9.333-12a9.334 9.334 0 0 0-9.333-9.333M26.148 16h2.667m-12-9.333V4" stroke="#006CF2" stroke-width="2" stroke-linecap="round" stroke-linejoin="round"/></svg>