<svg width="33" height="32" fill="none" xmlns="http://www.w3.org/2000/svg"><path d="m23.241 15.548 5.23-12.367v-.002a.643.643 0 0 1 1.184.503L23.37 18.536l-.017.04a.642.642 0 0 1-1.166-.04L15.902 3.68a.644.644 0 0 1 .833-.846.643.643 0 0 1 .35.345h.001l5.234 12.37.46 1.089.461-1.09Zm-6.155 2.487a.643.643 0 0 1-1.184.502l-1.638-3.871-.13-.305H6.282l-.129.305-1.637 3.87a.644.644 0 0 1-1.185-.501L9.616 3.178a.643.643 0 0 1 .592-.392h.001a.643.643 0 0 1 .591.392l6.286 14.857Zm-4.248-4.96h.754l-.294-.695-2.63-6.213-.46-1.088-.46 1.088-2.629 6.213-.294.695h6.013Zm12.305 9.37a.643.643 0 0 1 .906-.082l3.429 2.858a.643.643 0 0 1 0 .988l-3.429 2.857a.643.643 0 0 1-.823-.988l1.003-.837 1.059-.884H5.699l1.06.884 1.003.837a.643.643 0 0 1-.822.988L3.51 26.21a.643.643 0 0 1 0-.988l3.429-2.857a.643.643 0 0 1 .822.988l-1.003.835-1.062.884h21.592l-1.06-.884-1.003-.836a.643.643 0 0 1-.083-.905Z" fill="#006CF2" stroke="#006CF2"/></svg>