<svg width="22" height="25" fill="none" xmlns="http://www.w3.org/2000/svg"><path d="M.648 14.467c0-1.379.265-2.66.79-3.847a10.506 10.506 0 0 1 2.196-3.198l6.122-6.023c.156-.137.326-.242.514-.319l-.187-.46.187.46c.19-.077.37-.113.546-.113.174 0 .353.035.542.113.189.077.36.183.516.32l6.12 6.02.002.002c.934.934 1.665 1.999 2.195 3.198.526 1.189.79 2.47.79 3.847 0 2.8-.985 5.16-2.966 7.11-1.983 1.95-4.373 2.923-7.2 2.923s-5.217-.972-7.2-2.923c-1.982-1.95-2.968-4.31-2.967-7.11Zm1.74 1.275.064.425h16.653l.07-.418c.279-1.675.13-3.155-.496-4.406-.579-1.159-1.192-2.069-1.848-2.7l-5.665-5.599-.351-.347-.352.347L4.8 8.642c-.655.631-1.273 1.54-1.863 2.698-.637 1.249-.805 2.727-.549 4.402Z" fill="#006CF2" stroke="#006CF2"/></svg>