<svg width="33" height="32" fill="none" xmlns="http://www.w3.org/2000/svg"><path d="M24.482 17h4.666v11.333H17.815V17h6.666Zm-8.667 0v11.333H4.482V17h11.333Zm-4.667-2V3.667h11.334V15H11.148Z" stroke="#006CF2" stroke-width="2"/><path d="M16.815 16H3.482v13.333h13.333m0-13.333v13.333m0-13.333h13.333v13.333H16.815m0-22.666V12m-6.667-9.333h13.334V16H10.148V2.667Z" stroke="#006CF2" stroke-width="2" stroke-linecap="round" stroke-linejoin="round"/><path d="m14.148 9.333 2.667-2.666 2.666 2.666m-12 13.334h5.334m-5.333 0 2.666 2.666m-2.666-2.666L10.148 20m16 2.667h-5.333m5.333 0L23.482 20m2.666 2.667-2.666 2.666" stroke="#006CF2" stroke-width="2" stroke-linecap="round" stroke-linejoin="round"/></svg>