<svg xmlns="http://www.w3.org/2000/svg" viewBox="0 0 24 24"><path d="M14.8 5.3c-.2 0-.3.2-.3.4s.1.4.3.4l2.2.8.8 2.2c0 .2.2.3.4.3s.4-.1.4-.3l.8-2.2 2.2-.8c.2 0 .3-.2.3-.4s-.1-.4-.3-.4l-2.2-.8-.8-2.2c0-.2-.2-.3-.4-.3s-.4.1-.4.3L17 4.5l-2.2.8ZM10 4.9c-.1-.2-.3-.4-.6-.4s-.5.1-.6.4L6.7 9.4l-4.5 2.1c-.2.1-.4.3-.4.6s.1.5.4.6l4.5 2.1 2.1 4.5c.1.2.3.4.6.4s.5-.1.6-.4l2.1-4.5 4.5-2.1c.2-.1.4-.3.4-.6s-.1-.5-.4-.6l-4.5-2.1L10 4.9ZM17 17l-2.2.8c-.2 0-.3.2-.3.4s.1.4.3.4l2.2.8.8 2.2c0 .2.2.3.4.3s.4-.1.4-.3l.8-2.2 2.2-.8c.2 0 .3-.2.3-.4s-.1-.4-.3-.4l-2.2-.8-.8-2.2c0-.2-.2-.3-.4-.3s-.4.1-.4.3L17 17Z"/></svg>