<svg width="33" height="32" fill="none" xmlns="http://www.w3.org/2000/svg"><path d="M20.815 19.167c.428 0 .841-.036 1.24-.108a7.702 7.702 0 0 0 1.193-.32l.222-.08.08-.22c.522-1.42.606-2.811.23-4.156-.365-1.31-1.001-2.426-1.912-3.336-.91-.91-2.025-1.546-3.334-1.912-1.345-.377-2.737-.293-4.158.229l-.221.081-.078.222a7.75 7.75 0 0 0-.32 1.194A6.922 6.922 0 0 0 13.647 12c0 .996.185 1.931.558 2.798.37.857.889 1.61 1.555 2.255a6.915 6.915 0 0 0 2.256 1.557 6.98 6.98 0 0 0 2.798.557Zm0 0v-.5.5ZM8.777 12.11l.143-.073.073-.143a8.532 8.532 0 0 1 1.56-2.159 8.514 8.514 0 0 1 2.156-1.558l.15-.076.072-.15c.69-1.421 1.745-2.573 3.18-3.46a8.77 8.77 0 0 1 4.704-1.325c1.224 0 2.367.231 3.435.692a8.937 8.937 0 0 1 2.811 1.895 8.937 8.937 0 0 1 1.895 2.81A8.573 8.573 0 0 1 29.648 12c0 1.803-.444 3.373-1.32 4.729a8.946 8.946 0 0 1-3.475 3.16l-.143.073-.073.143a8.532 8.532 0 0 1-1.56 2.159 8.515 8.515 0 0 1-2.157 1.558l-.143.073-.073.143c-.736 1.428-1.806 2.584-3.221 3.472-1.408.882-2.96 1.323-4.668 1.323a8.575 8.575 0 0 1-3.435-.692 8.937 8.937 0 0 1-2.812-1.894 8.937 8.937 0 0 1-1.894-2.812A8.574 8.574 0 0 1 3.982 20c0-1.709.441-3.26 1.323-4.668.887-1.415 2.044-2.486 3.472-3.22ZM17.12 25.73l1.163-.896h-1.468a8.574 8.574 0 0 1-3.435-.692 8.936 8.936 0 0 1-2.812-1.894 8.937 8.937 0 0 1-1.894-2.812A8.574 8.574 0 0 1 7.982 16v-1.47l-.897 1.165a6.776 6.776 0 0 0-1.079 2.033A7.252 7.252 0 0 0 5.648 20c0 .999.19 1.935.577 2.803.38.854.892 1.606 1.536 2.25a7.408 7.408 0 0 0 2.25 1.537 6.828 6.828 0 0 0 2.804.577c.785 0 1.543-.12 2.273-.359a6.76 6.76 0 0 0 2.032-1.079Zm-.306-2.562a7.57 7.57 0 0 0 2.303-.357c.755-.24 1.446-.6 2.07-1.08l1.163-.897H20.88c-1.245 0-2.398-.237-3.464-.708a9.194 9.194 0 0 1-2.815-1.912 9.163 9.163 0 0 1-1.912-2.815c-.47-1.066-.708-2.22-.708-3.465l-.002-1.468-.895 1.164a6.691 6.691 0 0 0-1.08 2.07A7.567 7.567 0 0 0 9.648 16c0 .997.185 1.931.558 2.798.37.858.889 1.61 1.555 2.256a6.9 6.9 0 0 0 2.256 1.555c.867.372 1.801.557 2.797.558Zm8.834-7.1v1.471l.896-1.166c.48-.625.841-1.316 1.08-2.071A7.57 7.57 0 0 0 27.983 12c0-.996-.185-1.931-.559-2.798a6.926 6.926 0 0 0-1.554-2.255 6.9 6.9 0 0 0-2.257-1.556 7.028 7.028 0 0 0-2.797-.558c-.826 0-1.607.118-2.34.359a6.76 6.76 0 0 0-2.032 1.079l-1.163.896h1.468c1.246 0 2.399.237 3.465.708a9.196 9.196 0 0 1 2.815 1.912c.8.799 1.437 1.736 1.913 2.815.471 1.066.708 2.219.707 3.464Z" fill="#fff" stroke="#fff"/></svg>