<svg width="33" height="33" fill="none" xmlns="http://www.w3.org/2000/svg"><path d="m27.34 26.168.006.006a.834.834 0 0 1 .192.915l.463.19-.463-.19a.832.832 0 0 1-1.1.45l-.198.459.197-.46a.833.833 0 0 1-.27-.186l-.006-.007-4.774-4.773-.311-.312-.349.27a10.166 10.166 0 1 1 1.797-1.797l-.27.349.312.311.001.002 4.773 4.773ZM15.327 13.167v.5h3.167a.833.833 0 1 1 0 1.666h-3.167V18.5a.833.833 0 1 1-1.666 0v-3.167h-3.167a.833.833 0 0 1 0-1.666h3.167V10.5a.833.833 0 0 1 1.666 0v2.667ZM14.494 23a8.502 8.502 0 0 0 6.01-14.51A8.5 8.5 0 1 0 14.494 23Z" fill="#006CF2" stroke="#006CF2"/></svg>