<svg xmlns="http://www.w3.org/2000/svg" viewBox="0 0 33 32"><path d="M18.8 8.8h-14c-.2 0-.4 0-.6-.2S4 8.2 4 8s0-.4.2-.6.4-.2.6-.2h14c.2 0 .4 0 .6.2s.2.4.2.6 0 .4-.2.6c-.2.2-.4.2-.6.2Zm0 5.4h-14c-.2 0-.4 0-.6-.2s-.2-.4-.2-.6 0-.4.2-.6c.2-.2.4-.2.6-.2h14c.2 0 .4 0 .6.2s.2.4.2.6 0 .4-.2.6c-.2.2-.4.2-.6.2Zm10 10.6h-14c-.2 0-.4 0-.6-.2s-.2-.4-.2-.6 0-.4.2-.6.4-.2.6-.2h14c.2 0 .4 0 .6.2s.2.4.2.6 0 .4-.2.6-.4.2-.6.2Zm-14-7h14c.2 0 .4 0 .6.2s.2.4.2.6 0 .4-.2.6-.4.2-.6.2h-14c-.2 0-.4 0-.6-.2s-.2-.4-.2-.6 0-.4.2-.6.4-.2.6-.2Z" style="fill:#006cf2;stroke:#006cf2"/></svg>