<svg width="33" height="32" fill="none" xmlns="http://www.w3.org/2000/svg"><path d="M29.615 8.033h-25.6A1.567 1.567 0 0 0 2.448 9.6v12.8a1.567 1.567 0 0 0 1.567 1.567h25.6a1.567 1.567 0 0 0 1.567-1.567V9.6a1.567 1.567 0 0 0-1.567-1.567Zm-27.51-.342a2.7 2.7 0 0 1 1.91-.791h25.6a2.7 2.7 0 0 1 2.7 2.7v12.8a2.7 2.7 0 0 1-2.7 2.7h-25.6a2.7 2.7 0 0 1-2.7-2.7V9.6a2.7 2.7 0 0 1 .79-1.91Zm3.476 3.476h1.134V12.3H5.58v-1.133ZM9.848 12.3v-1.133h1.133V12.3H9.849Zm4.267-1.133h1.133V12.3h-1.133v-1.133ZM18.38 12.3v-1.133h1.134V12.3H18.38Zm4.267-1.133h1.134V12.3h-1.134v-1.133Zm4.267 1.133v-1.133h1.133V12.3h-1.133Zm-2.133 3.133h1.133v1.134h-1.133v-1.134Zm2.133 5.4V19.7h1.133v1.133h-1.133Zm-6.4-5.4h1.133v1.134h-1.133v-1.134Zm-4.267 1.134v-1.134h1.133v1.134h-1.133Zm-4.267-1.134h1.134v1.134h-1.133v-1.134Zm-4.266 1.134v-1.134h1.133v1.134H7.715ZM5.58 19.7h1.134v1.133H5.58V19.7Zm4.267 1.133V19.7h13.934v1.133H9.848Z" fill="#1B0044" stroke="#006CF2"/></svg>